<svg width="22" height="22" viewBox="0 0 22 22" fill="none" xmlns="http://www.w3.org/2000/svg">
<path d="M7.33398 17.4166H11.9173C14.51 17.4166 15.8064 17.4166 16.6118 16.6111C17.4173 15.8056 17.4173 14.5093 17.4173 11.9166C17.4173 10.2084 17.4173 9.06297 17.1871 8.24986M5.04232 6.45166C3.88923 6.51636 3.1613 6.7001 2.63944 7.22196C1.83398 8.02742 1.83398 9.32376 1.83398 11.9166C1.83398 13.9733 1.83398 15.2143 2.23609 16.0416" stroke="white" stroke-linecap="round"/>
<path d="M17.416 9.625L18.3576 9.78193C18.9821 9.88597 19.2944 9.93804 19.5313 10.0894C19.7643 10.2383 19.9471 10.454 20.0556 10.7083C20.166 10.9669 20.166 11.2835 20.166 11.9167C20.166 12.5497 20.166 12.8663 20.0556 13.1249C19.9471 13.3792 19.7643 13.595 19.5313 13.7439C19.2944 13.8952 18.9821 13.9473 18.3576 14.0513L17.416 14.2083" stroke="white" stroke-linecap="round"/>
<path d="M4.61409 18.3334C4.1666 13.3834 8.25062 12.3751 10.0838 10.0834M10.1147 14.5158C12.4475 13.864 13.9436 12.3039 14.4985 9.94435C15.1272 7.27204 14.0001 3.63308 11.0944 3.66698C11.0944 3.66698 11.3902 4.82139 11.1314 5.38678C10.1773 7.47143 6.87556 7.32662 5.80512 9.97057C5.16768 11.45 5.55317 13.1027 6.75264 14.0507C7.50634 14.6464 8.99459 14.8287 10.1147 14.5158Z" stroke="white" stroke-linecap="round" stroke-linejoin="round"/>
</svg>
