<svg width="32" height="32" viewBox="0 0 32 32" fill="none" xmlns="http://www.w3.org/2000/svg">
<path d="M10.666 25.3335H17.3327C21.1039 25.3335 22.9895 25.3335 24.1611 24.1619C25.3327 22.9903 25.3327 21.1047 25.3327 17.3335C25.3327 14.8489 25.3327 13.1828 24.9977 12.0001M7.33268 9.38452C5.65547 9.47863 4.59666 9.74589 3.83759 10.505C2.66602 11.6765 2.66602 13.5621 2.66602 17.3335C2.66602 20.3251 2.66602 22.1301 3.2509 23.3335" stroke="#005751" stroke-width="2" stroke-linecap="round"/>
<path d="M25.334 14L26.7036 14.2283C27.612 14.3796 28.0661 14.4553 28.4108 14.6755C28.7497 14.892 29.0156 15.2059 29.1735 15.5757C29.334 15.9519 29.334 16.4124 29.334 17.3333C29.334 18.2541 29.334 18.7147 29.1735 19.0908C29.0156 19.4607 28.7497 19.7745 28.4108 19.9911C28.0661 20.2112 27.612 20.2869 26.7036 20.4383L25.334 20.6667" stroke="#005751" stroke-width="2" stroke-linecap="round"/>
<path d="M6.71158 26.6666C6.06068 19.4666 12.0011 17.9999 14.6676 14.6666M14.7125 21.1136C18.1056 20.1656 20.2817 17.8964 21.0889 14.4643C22.0033 10.5773 20.364 5.28427 16.1375 5.33359C16.1375 5.33359 16.5677 7.01273 16.1913 7.83511C14.8036 10.8673 10.001 10.6567 8.44399 14.5024C7.5168 16.6543 8.07752 19.0583 9.8222 20.4371C10.9185 21.3036 13.0832 21.5688 14.7125 21.1136Z" stroke="#005751" stroke-width="2" stroke-linecap="round" stroke-linejoin="round"/>
</svg>
