<svg width="18" height="18" viewBox="0 0 18 18" fill="none" xmlns="http://www.w3.org/2000/svg">
<path d="M3.38432 14.615C5.26864 16.4096 7.51191 15.6918 8.40921 14.9649C8.87346 14.5889 9.08218 14.3458 9.26158 14.1663C9.88971 13.5831 9.84936 12.9999 9.44106 12.5333C9.27771 12.3465 8.22973 11.3399 7.22476 10.308C6.70432 9.78746 6.3454 9.41965 6.03853 9.12355C5.62756 8.7139 5.26865 8.24418 4.73027 8.25761C4.23676 8.25761 3.87784 8.69283 3.42919 9.14148C2.91308 9.65756 2.5319 10.308 2.3973 10.8912C1.99352 12.5961 2.62162 13.8074 3.38432 14.615ZM3.38432 14.615L1.5 16.4993" stroke="white" stroke-linecap="round"/>
<path d="M14.6143 3.38595C12.7295 1.59049 10.4939 2.32185 9.59641 3.04902C9.13201 3.42525 8.92329 3.66844 8.74374 3.84799C8.11546 4.43151 8.15589 5.01503 8.56426 5.48185C8.62299 5.54901 8.79616 5.72222 9.04051 5.96451M14.6143 3.38595C15.3773 4.1939 16.0139 5.41901 15.6099 7.12469C15.4753 7.70818 15.0941 8.35888 14.5778 8.87526C14.129 9.32413 13.77 9.75951 13.2764 9.75951C12.7378 9.77301 12.4583 9.38353 12.0473 8.97373M14.6143 3.38595L16.4992 1.50073M9.04051 5.96451C9.47589 6.39614 10.1374 7.047 10.7812 7.70818C11.3018 8.22898 11.7403 8.67748 12.0473 8.97373M9.04051 5.96451L7.88281 7.12947M12.0473 8.97373L10.8761 10.1171" stroke="white" stroke-linecap="round"/>
</svg>
