<svg width="31" height="31" viewBox="0 0 31 31" fill="none" xmlns="http://www.w3.org/2000/svg">
<path d="M8.59732 20.5433C5.27516 20.5433 2.58203 17.9664 2.58203 14.7873C2.58203 11.6095 5.27516 9.03264 8.59732 9.03264C9.10495 6.77032 10.9146 4.924 13.3442 4.1883C15.7725 3.45388 18.454 3.9405 20.376 5.47225C22.298 7.00015 23.1686 9.33309 22.6623 11.5954H23.941C26.412 11.5954 28.4154 13.5984 28.4154 16.0713C28.4154 18.5454 26.412 20.5484 23.9397 20.5484H8.59732" stroke="#005751" stroke-width="2" stroke-linecap="round" stroke-linejoin="round"/>
<path d="M15.5 20.5432V26.963" stroke="#005751" stroke-width="2" stroke-linecap="round" stroke-linejoin="round"/>
<path d="M20.668 20.5432V25.679C20.668 26.0195 20.8041 26.3461 21.0463 26.5869C21.2885 26.8277 21.6171 26.963 21.9596 26.963H27.1263" stroke="#005751" stroke-width="2" stroke-linecap="round" stroke-linejoin="round"/>
<path d="M10.3333 20.5432V25.679C10.3333 26.0195 10.1972 26.3461 9.95501 26.5869C9.71278 26.8277 9.38424 26.963 9.04167 26.963H3.875" stroke="#005751" stroke-width="2" stroke-linecap="round" stroke-linejoin="round"/>
</svg>
