<svg width="19" height="19" viewBox="0 0 19 19" fill="none" xmlns="http://www.w3.org/2000/svg">
<path d="M5.27078 12.6666C3.23461 12.6666 1.58398 11.0777 1.58398 9.11753C1.58398 7.15816 3.23461 5.56928 5.27078 5.56928C5.5819 4.17437 6.69103 3.03595 8.18015 2.58233C9.66848 2.12949 11.312 2.42953 12.49 3.37399C13.668 4.31608 14.2016 5.75453 13.8912 7.14945H14.675C16.1894 7.14945 17.4173 8.38445 17.4173 9.9092C17.4173 11.4347 16.1894 12.6697 14.6742 12.6697H5.27078" stroke="white" stroke-linecap="round" stroke-linejoin="round"/>
<path d="M9.5 12.6667V16.6251" stroke="white" stroke-linecap="round" stroke-linejoin="round"/>
<path d="M12.666 12.6667V15.8334C12.666 16.0434 12.7494 16.2447 12.8979 16.3932C13.0464 16.5417 13.2477 16.6251 13.4577 16.6251H16.6243" stroke="white" stroke-linecap="round" stroke-linejoin="round"/>
<path d="M6.33333 12.6667V15.8334C6.33333 16.0434 6.24993 16.2447 6.10146 16.3932C5.95299 16.5417 5.75163 16.6251 5.54167 16.6251H2.375" stroke="white" stroke-linecap="round" stroke-linejoin="round"/>
</svg>
