<svg width="21" height="21" viewBox="0 0 21 21" fill="none" xmlns="http://www.w3.org/2000/svg">
<path d="M17.0625 6.5625H7.875V4.59375C7.875 3.89756 8.15156 3.22988 8.64384 2.73759C9.13613 2.24531 9.80381 1.96875 10.5 1.96875C11.7608 1.96875 12.8953 2.87109 13.1381 4.06793C13.1742 4.23705 13.2755 4.38511 13.4201 4.47992C13.5647 4.57474 13.7409 4.60865 13.9104 4.57428C14.0799 4.53991 14.2289 4.44004 14.3252 4.29638C14.4214 4.15272 14.4571 3.97687 14.4244 3.80707C14.0536 1.98105 12.4031 0.65625 10.5 0.65625C9.45604 0.657336 8.45516 1.07253 7.71697 1.81072C6.97878 2.54891 6.56359 3.54979 6.5625 4.59375V6.5625H3.9375C3.5894 6.5625 3.25556 6.70078 3.00942 6.94692C2.76328 7.19306 2.625 7.5269 2.625 7.875V17.0625C2.625 17.4106 2.76328 17.7444 3.00942 17.9906C3.25556 18.2367 3.5894 18.375 3.9375 18.375H17.0625C17.4106 18.375 17.7444 18.2367 17.9906 17.9906C18.2367 17.7444 18.375 17.4106 18.375 17.0625V7.875C18.375 7.5269 18.2367 7.19306 17.9906 6.94692C17.7444 6.70078 17.4106 6.5625 17.0625 6.5625ZM17.0625 17.0625H3.9375V7.875H17.0625V17.0625ZM10.5 9.1875C9.94842 9.18769 9.41533 9.38636 8.99816 9.7472C8.58099 10.108 8.3076 10.607 8.22796 11.1528C8.14833 11.6986 8.26776 12.2548 8.56444 12.7198C8.86112 13.1848 9.31522 13.5275 9.84375 13.6853V15.0938C9.84375 15.2678 9.91289 15.4347 10.036 15.5578C10.159 15.6809 10.326 15.75 10.5 15.75C10.674 15.75 10.841 15.6809 10.964 15.5578C11.0871 15.4347 11.1562 15.2678 11.1562 15.0938V13.6853C11.6848 13.5275 12.1389 13.1848 12.4356 12.7198C12.7322 12.2548 12.8517 11.6986 12.772 11.1528C12.6924 10.607 12.419 10.108 12.0018 9.7472C11.5847 9.38636 11.0516 9.18769 10.5 9.1875ZM10.5 12.4688C10.3053 12.4688 10.115 12.411 9.95311 12.3029C9.79123 12.1947 9.66506 12.0409 9.59056 11.8611C9.51605 11.6812 9.49656 11.4833 9.53454 11.2923C9.57252 11.1014 9.66627 10.926 9.80394 10.7883C9.94161 10.6507 10.117 10.5569 10.308 10.5189C10.4989 10.4809 10.6968 10.5004 10.8767 10.5749C11.0566 10.6494 11.2103 10.7756 11.3185 10.9375C11.4266 11.0994 11.4844 11.2897 11.4844 11.4844C11.4844 11.7454 11.3807 11.9958 11.1961 12.1804C11.0115 12.365 10.7611 12.4688 10.5 12.4688Z" fill="white"/>
</svg>
