<svg width="20" height="36" viewBox="0 0 20 36" fill="none" xmlns="http://www.w3.org/2000/svg">
<path d="M8.76303 19.4858C8.76303 19.3547 8.76303 19.2513 8.76303 19.1547C8.76303 17.9542 8.76303 16.7469 8.76303 15.5465C8.76303 15.3441 8.65954 15.2429 8.45257 15.2429C7.03137 15.2429 5.61017 15.2429 4.18897 15.2429C3.91301 15.2429 3.89921 15.2567 3.89921 15.5327C3.89921 15.6776 3.89921 15.8224 3.89921 15.9673C3.89921 16.5882 3.42318 17.1471 2.84366 17.216C2.14686 17.2988 1.58804 16.9332 1.40176 16.2916C1.32587 16.0294 1.31897 15.7603 1.32587 15.4982C1.33277 15.3119 1.27068 15.2429 1.07751 15.2429C0.801548 15.2429 0.525586 15.2912 0.256524 15.1946C0.0978464 15.1394 0.00125997 15.029 0.008159 14.8566C0.015058 14.6772 0.153039 14.5323 0.332413 14.5047C0.387606 14.4978 0.442798 14.5047 0.49799 14.5047C0.704961 14.5047 0.911932 14.5047 1.1189 14.5047C1.27068 14.5047 1.32587 14.4426 1.32587 14.2978C1.32587 14.077 1.32587 13.8631 1.35347 13.6423C1.42936 13.0835 1.74671 12.7248 2.27104 12.5592C2.80227 12.3867 3.2438 12.5661 3.60945 12.9731C3.78883 13.1732 3.87852 13.4216 3.89231 13.6906C3.89921 13.8286 3.89231 13.9666 3.89231 14.1046C3.89231 14.3805 4.02569 14.5185 4.29246 14.5185C5.09964 14.5185 5.90683 14.5185 6.71402 14.5185C7.30733 14.5185 7.90065 14.5116 8.49397 14.5185C8.70094 14.5185 8.76993 14.4633 8.76993 14.2495C8.76303 12.9731 8.76993 11.6899 8.76993 10.4136C8.76993 10.1652 8.81132 9.93066 8.93551 9.71679C9.03899 9.53742 9.03899 9.35115 9.03209 9.16487C9.03209 9.04759 8.97 8.9924 8.85272 8.9924C8.77683 8.9924 8.70094 8.9924 8.62505 8.9924C5.94823 8.9924 3.2714 8.9924 0.594577 8.9924C0.484192 8.9924 0.373808 8.9993 0.263423 8.9648C0.111644 8.91651 0.008159 8.81992 0.015058 8.65434C0.015058 8.48877 0.0978464 8.36458 0.263423 8.31629C0.373808 8.2818 0.484192 8.2887 0.594577 8.2887C3.299 8.2887 6.00342 8.2887 8.70784 8.2887C9.03899 8.2887 9.03899 8.2887 9.03899 7.95754C9.03899 7.5298 9.03899 7.10206 9.32875 6.74331C9.63231 6.37076 10.0394 6.21899 10.5085 6.28108C10.9707 6.34317 11.3088 6.60533 11.4881 7.03997C11.6192 7.35043 11.6123 7.68158 11.6123 8.01273C11.6123 8.2818 11.6192 8.2887 11.8952 8.2887C13.206 8.2887 14.5168 8.2887 15.8276 8.2887C16.1105 8.2887 16.2347 8.43357 16.2071 8.70264C16.1864 8.91651 16.0898 8.9924 15.8138 8.9924C14.5306 8.9924 13.2474 8.9924 11.9642 8.9924C11.8469 8.9924 11.6951 8.9303 11.6261 9.06829C11.5502 9.22006 11.6123 9.35115 11.7158 9.48223C11.9297 9.74439 12.047 10.041 12.0401 10.3929C12.0263 11.683 12.0401 12.98 12.0401 14.2702C12.0401 14.5461 12.0401 14.553 12.316 14.553C13.5027 14.553 14.6893 14.4909 15.869 14.5116C15.9725 14.5116 16.076 14.5116 16.1726 14.5392C16.3382 14.5944 16.4141 14.7117 16.4141 14.8842C16.4141 15.0566 16.3382 15.167 16.1657 15.2222C16.0622 15.2498 15.9656 15.2567 15.8621 15.2567C15.4758 15.2567 15.0894 15.2567 14.7031 15.2567C14.5444 15.2567 14.4823 15.3119 14.5651 15.4706C14.572 15.4913 14.5858 15.5051 14.5927 15.5258C14.6801 15.7098 14.8135 15.758 14.9929 15.6707C15.9863 15.2015 17.0902 15.6362 17.4351 16.6296C17.4765 16.7469 17.5041 16.8642 17.5041 16.9953C17.5041 17.2436 17.5041 17.492 17.5041 17.7404C17.5041 18.0094 17.5041 17.9956 17.7663 17.9473C18.7597 17.7473 19.5255 18.3337 19.5255 19.3478C19.5255 20.7207 19.5255 22.1006 19.5255 23.4735C19.5255 24.2186 19.5255 24.9568 19.5255 25.7018C19.5255 26.2193 19.4289 26.716 19.222 27.1851C18.8011 28.1303 18.4838 29.1238 18.0767 30.0827C18.0146 30.2345 17.9939 30.4001 17.9939 30.5657C17.9939 32.0835 17.9939 33.6012 18.0008 35.1259C18.0008 35.4571 17.9111 35.5606 17.5869 35.5882C17.4213 35.602 17.2557 35.5951 17.0902 35.5951C14.8273 35.5951 12.5644 35.5951 10.3015 35.5951C9.81168 35.5951 9.7082 35.4916 9.7013 35.0017C9.7013 33.5805 9.6944 32.1524 9.7013 30.7312C9.7013 30.2621 9.61851 29.8482 9.38394 29.4411C8.69404 28.2545 8.06623 27.0265 7.34873 25.8536C6.87269 25.074 6.61743 24.2255 6.30697 23.3907C5.77575 21.9488 5.27212 20.4931 4.76159 19.0374C4.60291 18.5889 4.50633 18.1474 4.63741 17.6714C4.91337 16.6986 6.07241 16.0915 7.12106 16.5882C7.5833 16.809 7.90755 17.1608 8.07313 17.6507C8.2663 18.2164 8.46637 18.7821 8.66644 19.3409C8.68714 19.3892 8.68714 19.4513 8.78373 19.5134L8.76303 19.4858ZM11.2881 16.4571C11.2881 14.7186 11.2881 12.98 11.2881 11.2415C11.2881 10.9655 11.2743 10.6896 11.2536 10.4205C11.2053 9.80648 10.5568 9.41324 10.0394 9.6892C9.6875 9.87547 9.53572 10.1997 9.54262 10.593C9.54262 12.2418 9.54262 13.8907 9.54262 15.5396C9.54262 17.6024 9.54262 19.6652 9.54262 21.728C9.54262 21.8384 9.54952 21.9488 9.50813 22.0523C9.45293 22.1902 9.35635 22.2799 9.20457 22.2937C9.05279 22.3144 8.93551 22.2454 8.85962 22.1144C8.81132 22.0247 8.76993 21.9281 8.72853 21.8315C8.2939 20.7414 7.90755 19.6307 7.5212 18.52C7.42462 18.2371 7.34183 17.9404 7.19005 17.6783C6.99688 17.3471 6.70022 17.1746 6.32077 17.1815C5.94823 17.1815 5.67916 17.3747 5.49979 17.6852C5.32731 17.9818 5.35491 18.2854 5.47219 18.6027C5.95512 19.9619 6.43806 21.321 6.92789 22.6801C7.30044 23.7218 7.63159 24.7705 8.21801 25.7294C8.9424 26.923 9.60471 28.151 10.2877 29.3652C10.3774 29.5239 10.4878 29.5791 10.6672 29.5791C12.8128 29.5791 14.9584 29.5791 17.104 29.5791C17.3247 29.5791 17.442 29.4963 17.5179 29.2893C17.6904 28.8133 17.8766 28.3373 18.0629 27.8612C18.2216 27.4542 18.3803 27.0403 18.5459 26.6332C18.7045 26.2469 18.7459 25.8467 18.7459 25.4397C18.7459 23.3907 18.7873 21.3417 18.7252 19.2927C18.7114 18.9339 18.4769 18.6786 18.1457 18.6579C17.8766 18.6372 17.5938 18.8925 17.5248 19.2168C17.4972 19.3409 17.4972 19.4582 17.4972 19.5824C17.4972 20.4034 17.4972 21.2175 17.4972 22.0385C17.4972 22.2661 17.3661 22.3972 17.166 22.411C16.9315 22.4179 16.7935 22.3006 16.7797 22.0523C16.7728 21.9557 16.7797 21.8591 16.7797 21.7625C16.7797 20.3965 16.7797 19.0236 16.7797 17.6576C16.7797 17.4644 16.7659 17.2712 16.7383 17.085C16.6555 16.5468 16.2485 16.2295 15.6897 16.2502C15.2343 16.264 14.8687 16.6434 14.8204 17.1471C14.7928 17.423 14.779 17.6921 14.779 17.968C14.779 19.2651 14.779 20.569 14.779 21.866C14.779 21.935 14.779 22.004 14.779 22.073C14.7583 22.2799 14.6203 22.4041 14.4064 22.411C14.2133 22.411 14.0891 22.3075 14.0546 22.1075C14.0339 21.9626 14.0201 21.8177 14.0201 21.6797C14.0201 20.0377 14.0201 18.3958 14.0201 16.7538C14.0201 16.5744 14.027 16.3951 14.0063 16.2157C13.958 15.8224 13.7441 15.5396 13.3647 15.3947C12.9921 15.2567 12.661 15.3464 12.3781 15.6155C12.116 15.8638 12.0401 16.1881 12.0401 16.5399C12.0401 18.2302 12.0401 19.9205 12.0401 21.6107C12.0401 21.7625 12.0401 21.9143 12.0401 22.0661C12.0332 22.2799 11.909 22.411 11.7158 22.4179C11.4881 22.4248 11.3502 22.3144 11.3295 22.0868C11.3226 21.9833 11.3295 21.8798 11.3295 21.7763C11.3295 20.0033 11.3295 18.2302 11.3295 16.4571H11.2881ZM13.8476 34.8155C14.8825 34.8155 15.9173 34.8155 16.9522 34.8155C17.1316 34.8155 17.2074 34.7741 17.2074 34.574C17.2005 33.277 17.2074 31.98 17.2074 30.6761C17.2074 30.4967 17.1454 30.4208 16.9591 30.4208C14.8756 30.4208 12.7921 30.4208 10.7155 30.4208C10.543 30.4208 10.4809 30.4898 10.4878 30.6554C10.4878 30.9796 10.4878 31.3039 10.4878 31.6212C10.4878 32.6009 10.4878 33.5874 10.4878 34.5671C10.4878 34.7603 10.5706 34.8155 10.75 34.8155C11.7848 34.8155 12.8197 34.8155 13.8545 34.8155H13.8476ZM2.07097 14.8773C2.07097 15.1463 2.07097 15.3947 2.07097 15.6431C2.07097 15.7948 2.05717 15.9466 2.11236 16.0915C2.20205 16.3192 2.42282 16.4778 2.65049 16.4709C2.88506 16.4709 3.05063 16.3192 3.12652 16.057C3.14032 16.0087 3.15412 15.9604 3.15412 15.919C3.20931 15.2015 3.21621 14.4771 3.14722 13.7596C3.11962 13.4561 2.87816 13.2353 2.60909 13.2353C2.37453 13.2353 2.16066 13.4423 2.11236 13.732C2.04337 14.1184 2.09857 14.5116 2.07787 14.8842L2.07097 14.8773ZM9.77029 8.11622C9.77029 8.33009 9.77029 8.54396 9.77029 8.75783C9.77029 8.86821 9.80478 8.93031 9.92897 8.88891C10.1359 8.81992 10.3567 8.81992 10.5637 8.84062C10.7706 8.86131 10.8879 8.85442 10.8189 8.59915C10.812 8.57845 10.8258 8.54396 10.8327 8.51636C10.8465 8.15761 10.881 7.79886 10.812 7.44701C10.7569 7.15036 10.5154 6.96408 10.267 6.99168C9.99106 7.01927 9.77719 7.26764 9.77029 7.5574C9.77029 7.74367 9.77029 7.92995 9.77029 8.11622Z" fill="white"/>
<path d="M12.2046 2.76961C11.1629 2.76961 10.1211 2.76961 9.07937 2.76961C8.8931 2.76961 8.70683 2.76961 8.52055 2.73511C8.34808 2.70751 8.26529 2.76961 8.27219 2.95588C8.27219 3.19045 8.28598 3.42501 8.24459 3.65268C8.09281 4.41847 7.52709 4.74963 6.93377 4.73583C6.25767 4.72203 5.74714 4.17701 5.71265 3.48021C5.70575 3.32153 5.69885 3.16285 5.71265 3.00417C5.72644 2.811 5.64365 2.75581 5.45738 2.75581C4.56741 2.75581 3.67743 2.75581 2.78746 2.75581C2.15964 2.75581 1.53183 2.75581 0.90402 2.75581C0.717746 2.75581 0.531473 2.73511 0.352098 2.70751C0.131329 2.68682 -0.00665179 2.52814 0.000247239 2.34877C0.00714627 2.16939 0.165824 2.02451 0.372795 1.99691C0.455583 1.99002 0.538372 1.99002 0.62116 1.99002C2.19414 1.99002 3.76712 1.99002 5.3401 1.99002C5.70575 1.99002 5.71265 1.99002 5.70575 1.61747C5.70575 1.22422 5.70575 0.830978 5.97481 0.499825C6.30596 0.0858826 6.7406 -0.0727951 7.25803 0.0306904C7.77546 0.134176 8.1411 0.513623 8.23079 1.01035C8.27219 1.25182 8.27909 1.48639 8.27909 1.72785C8.27909 1.98312 8.29288 1.99691 8.54815 1.99691C10.1073 1.99691 11.6665 1.99691 13.2257 1.99691C14.0812 1.99691 14.9367 1.99691 15.7921 1.99691C16.1302 1.99691 16.2958 2.29357 16.1164 2.58333C16.0681 2.66612 15.9991 2.71441 15.9025 2.73511C15.7576 2.76271 15.6197 2.7834 15.4748 2.7765C14.3847 2.7765 13.2947 2.7765 12.2046 2.7765V2.76961ZM6.45774 2.38326C6.45774 2.71441 6.45774 3.03867 6.45774 3.36982C6.45774 3.44571 6.45774 3.5216 6.48534 3.59059C6.56123 3.83896 6.81649 4.01833 7.04416 3.99073C7.30632 3.96314 7.52709 3.73547 7.52709 3.45951C7.53399 2.76271 7.52709 2.05901 7.52709 1.3622C7.52709 1.27942 7.50639 1.19663 7.4788 1.12074C7.36841 0.803382 7.00966 0.651603 6.7268 0.810281C6.52673 0.927565 6.45774 1.11384 6.45774 1.33461C6.45774 1.68646 6.45774 2.03141 6.45774 2.38326Z" fill="white"/>
</svg>
