<svg width="29" height="29" viewBox="0 0 29 29" fill="none" xmlns="http://www.w3.org/2000/svg">
<path d="M5.45187 23.5464C8.48772 26.4377 12.1019 25.2812 13.5475 24.1102C14.2955 23.5043 14.6318 23.1127 14.9208 22.8235C15.9328 21.8838 15.8678 20.9442 15.2099 20.1925C14.9468 19.8916 13.2584 18.2698 11.6392 16.6073C10.8008 15.7687 10.2225 15.1761 9.72809 14.6991C9.06598 14.0391 8.48773 13.2823 7.62034 13.3039C6.82524 13.3039 6.24698 14.0051 5.52415 14.7279C4.69264 15.5594 4.07851 16.6073 3.86167 17.547C3.21112 20.2936 4.22308 22.2452 5.45187 23.5464ZM5.45187 23.5464L2.41602 26.5822" stroke="#005751" stroke-width="2" stroke-linecap="round"/>
<path d="M23.5463 5.45526C20.5097 2.56258 16.908 3.74089 15.462 4.91243C14.7138 5.51858 14.3775 5.91039 14.0882 6.19967C13.076 7.13978 13.1411 8.07989 13.7991 8.83199C13.8937 8.9402 14.1727 9.21925 14.5664 9.60962M23.5463 5.45526C24.7756 6.75696 25.8012 8.73075 25.1504 11.4788C24.9335 12.4189 24.3193 13.4672 23.4875 14.2991C22.7645 15.0223 22.1861 15.7238 21.3908 15.7238C20.5231 15.7455 20.0728 15.118 19.4106 14.4578M23.5463 5.45526L26.5831 2.41797M14.5664 9.60962C15.2678 10.305 16.3335 11.3536 17.3708 12.4189C18.2095 13.2579 18.916 13.9805 19.4106 14.4578M14.5664 9.60962L12.7012 11.4865M19.4106 14.4578L17.5236 16.2999" stroke="#005751" stroke-width="2" stroke-linecap="round"/>
</svg>
